<?xml version="1.0" encoding="utf-8"?>
<!-- Generator: Adobe Illustrator 20.1.0, SVG Export Plug-In . SVG Version: 6.00 Build 0)  -->
<svg version="1.1" id="content" xmlns="http://www.w3.org/2000/svg" xmlns:xlink="http://www.w3.org/1999/xlink" x="0px" y="0px"
	 viewBox="0 0 1043 94" style="enable-background:new 0 0 1043 94;" xml:space="preserve">
<style type="text/css">
	.st0{clip-path:url(#SVGID_2_);}
	.st1{fill:none;}
	.st2{fill:#212121;}
	.st3{fill:#BDBDBD;}
	.st4{fill:#FFFFFF;}
</style>
<g>
	<g>
		<path class="st2" d="M18.5,3.6L32.6,47L47.8,3.6h13.7v86.7H50.8V55.8l0.9-36.2l-16,46.7h-6.3L14.6,20.8l0.9,35v34.6H4.8V3.6H18.5z
			"/>
		<path class="st2" d="M124,67.9h-29l-7,22.5h-11l28-86.7h9.2l27.5,86.7h-11L124,67.9z M98.1,58.3h23.1l-11.4-37.6L98.1,58.3z"/>
		<path class="st2" d="M207.4,13h-26.8v77.3h-10.7V13H143V3.6h64.3V13z"/>
		<path class="st2" d="M273.8,50.3h-36.2V81h42.2v9.4h-53.3V3.6h52.7V13h-41.7v27.9h36.2V50.3z"/>
		<path class="st2" d="M327.4,55h-17.3v35.4h-11V3.6h25.4c4.1,0.1,7.9,0.7,11.4,1.7s6.7,2.7,9.4,4.8s4.8,4.8,6.3,8.1
			c1.5,3.2,2.3,7,2.3,11.4c0,2.8-0.4,5.4-1.2,7.7c-0.8,2.3-1.9,4.5-3.4,6.4s-3.1,3.6-5.1,5.1c-2,1.5-4.2,2.7-6.6,3.8l18.4,37.1
			l-0.1,0.7h-11.6L327.4,55z M310.1,45.9h14.8c2.5,0,4.8-0.4,7-1.2c2.2-0.7,4.1-1.8,5.7-3.2c1.6-1.4,2.9-3.1,3.9-5.1
			s1.4-4.3,1.4-6.9c0-2.8-0.5-5.2-1.4-7.3c-0.9-2.1-2.2-3.8-3.8-5.2c-1.6-1.4-3.6-2.5-5.8-3.2c-2.2-0.7-4.7-1.1-7.4-1.1h-14.5V45.9z
			"/>
		<path class="st2" d="M370.6,3.6H423v9.6h-20.8v67.6H423v9.5h-52.4v-9.5h20.3V13.2h-20.3V3.6z"/>
		<path class="st2" d="M482.8,67.9h-29l-7,22.5h-11l28-86.7h9.2l27.5,86.7h-11L482.8,67.9z M456.8,58.3h23.1l-11.4-37.6L456.8,58.3z
			"/>
		<path class="st2" d="M527.3,81h42.4v9.4h-53.4V3.6h11V81z"/>
	</g>
	<g>
		<path class="st2" d="M617.2,90.4V3.6h20.1c6,0.1,11.4,1.1,16.2,3.1c4.7,2,8.8,4.7,12,8.2c3.3,3.5,5.8,7.7,7.5,12.6
			s2.6,10.3,2.7,16.3v6.4c0,6-0.9,11.4-2.7,16.3s-4.2,9.1-7.5,12.6c-3.3,3.5-7.3,6.3-12,8.2c-4.7,2-10.1,3-16.2,3H617.2z
			 M628.4,12.7v68.7h8.9c4.7,0,8.7-0.9,12.2-2.5c3.4-1.6,6.2-3.8,8.5-6.6c2.2-2.8,3.9-6.1,5-9.8c1.1-3.8,1.7-7.9,1.7-12.3v-6.5
			c0-4.4-0.6-8.5-1.7-12.2c-1.1-3.8-2.8-7-5-9.8c-2.2-2.8-5-4.9-8.5-6.5c-3.4-1.6-7.5-2.4-12.2-2.5H628.4z"/>
		<path class="st2" d="M741.1,50.3h-36.2V81h42.2v9.4h-53.3V3.6h52.7V13h-41.7v27.9h36.2V50.3z"/>
		<path class="st2" d="M808.4,68.4c0-2.7-0.6-4.9-1.8-6.7c-1.2-1.8-2.8-3.4-4.7-4.6c-1.9-1.3-4-2.3-6.3-3.1
			c-2.3-0.8-4.5-1.6-6.6-2.3c-3.1-1-6.2-2.2-9.3-3.6c-3.2-1.4-6-3.1-8.6-5.1c-2.6-2-4.7-4.4-6.4-7.2c-1.6-2.8-2.5-6-2.5-9.7
			c0-3.7,0.8-7.1,2.5-10c1.6-2.9,3.8-5.4,6.5-7.4c2.7-2,5.7-3.6,9.1-4.6c3.4-1.1,6.8-1.6,10.2-1.6c3.8,0,7.4,0.6,10.9,1.9
			c3.5,1.2,6.6,3,9.3,5.3c2.7,2.3,4.9,5,6.5,8.2c1.6,3.2,2.5,6.8,2.6,10.8h-11.3c-0.3-2.5-0.9-4.8-1.8-6.8c-0.9-2-2.1-3.8-3.6-5.3
			c-1.5-1.5-3.3-2.6-5.4-3.4c-2.1-0.8-4.4-1.2-7.1-1.2c-2.1,0-4.2,0.3-6.2,0.9c-2,0.6-3.8,1.5-5.4,2.7c-1.6,1.2-2.8,2.7-3.8,4.4
			c-0.9,1.7-1.4,3.8-1.4,6.1c0,2.5,0.7,4.6,1.9,6.3c1.2,1.7,2.8,3.2,4.7,4.4c1.9,1.2,3.9,2.2,6.1,3c2.2,0.8,4.3,1.5,6.2,2.1
			c2.1,0.7,4.3,1.4,6.5,2.3c2.2,0.9,4.3,1.8,6.3,2.9c2,1.1,3.9,2.4,5.7,3.8c1.7,1.4,3.3,3,4.6,4.7s2.3,3.7,3.1,5.8
			c0.7,2.1,1.1,4.5,1.1,7.1c0,3.9-0.9,7.3-2.6,10.2c-1.7,2.9-4,5.3-6.7,7.2c-2.7,1.9-5.8,3.4-9.3,4.3s-6.9,1.5-10.4,1.5
			c-3.9,0-7.6-0.6-11.3-1.8s-7-2.9-9.9-5.2s-5.3-5-7.1-8.2c-1.8-3.2-2.8-6.9-2.9-11.1h11.3c0.4,2.7,1.1,5.1,2.2,7.2
			c1.1,2.1,2.5,3.9,4.3,5.3c1.7,1.4,3.8,2.5,6,3.3c2.3,0.7,4.8,1.1,7.5,1.1c2.1,0,4.3-0.3,6.3-0.8c2.1-0.5,3.9-1.4,5.6-2.5
			c1.6-1.1,3-2.6,4-4.3C807.8,72.9,808.4,70.8,808.4,68.4z"/>
		<path class="st2" d="M833.7,3.6h52.4v9.6h-20.8v67.6h20.8v9.5h-52.4v-9.5H854V13.2h-20.3V3.6z"/>
		<path class="st2" d="M961.2,79c-3.7,4.3-7.8,7.5-12.6,9.5c-4.7,2.1-9.9,3.1-15.5,3c-3.6,0-6.9-0.6-9.9-1.6c-3-1.1-5.7-2.5-8.1-4.3
			c-2.4-1.8-4.5-4-6.3-6.5s-3.3-5.2-4.5-8.1c-1.2-2.9-2.1-6-2.7-9.2c-0.6-3.2-0.9-6.4-1-9.7V42c0-3.2,0.3-6.4,0.9-9.6
			c0.5-3.2,1.4-6.3,2.5-9.2c1.1-2.9,2.5-5.7,4.2-8.2c1.7-2.5,3.7-4.7,6-6.6c2.3-1.8,5-3.3,7.9-4.4c2.9-1.1,6.2-1.6,9.9-1.6
			c4.1,0,7.8,0.6,11.2,1.9c3.4,1.2,6.4,3,8.9,5.4c2.5,2.3,4.6,5.1,6.1,8.4c1.5,3.3,2.5,6.9,2.9,11h-10.9c-0.4-2.5-1.1-4.8-2-6.9
			c-0.9-2.1-2.1-3.9-3.6-5.5c-1.5-1.5-3.3-2.7-5.3-3.5c-2.1-0.9-4.5-1.3-7.2-1.3c-2.6,0-4.9,0.4-7,1.3c-2,0.9-3.8,2.1-5.3,3.6
			c-1.5,1.5-2.8,3.3-3.8,5.3c-1,2-1.8,4.1-2.4,6.3c-0.6,2.2-1.1,4.5-1.4,6.8c-0.3,2.3-0.4,4.5-0.4,6.7v10.2c0,2.2,0.2,4.4,0.6,6.8
			c0.3,2.3,0.9,4.6,1.6,6.8c0.7,2.2,1.6,4.3,2.7,6.3c1.1,2,2.5,3.7,4,5.2c1.6,1.5,3.4,2.7,5.5,3.6c2.1,0.9,4.4,1.4,7,1.4
			c1.5,0,3.1,0,4.7-0.2c1.6-0.2,3.2-0.5,4.8-1s3-1.1,4.3-1.9c1.3-0.8,2.5-1.9,3.4-3.2l0.1-19.5h-17.6v-9.3H961L961.2,79z"/>
		<path class="st2" d="M1038.1,90.4h-11.2l-33.7-64.8l-0.2,64.8H982V3.6h11.2l33.7,64.7l0.2-64.7h11.1V90.4z"/>
	</g>
</g>
</svg>
