<?xml version="1.0" encoding="utf-8"?>
<!-- Generator: Adobe Illustrator 19.0.1, SVG Export Plug-In . SVG Version: 6.00 Build 0)  -->
<svg version="1.1" id="Layer_1" xmlns="http://www.w3.org/2000/svg" xmlns:xlink="http://www.w3.org/1999/xlink" x="0px" y="0px"
	 width="23px" height="19px" viewBox="-166 314.5 23 19" style="enable-background:new -166 314.5 23 19;" xml:space="preserve">
<style type="text/css">
	.st0{fill:#FFFFFF;}
	.st1{fill:#616161;}
</style>
<g>
	<path class="st0" d="M-166,324v9.5h13.5c-2.6,0-5.4-1.5-9.3-5.3L-166,324z"/>
	<path class="st0" d="M-152.5,314.5H-166v9.5l4.2-4.2C-158,315.9-155.2,314.5-152.5,314.5z"/>
	<path class="st0" d="M-152.5,333.5h9.5V324C-143,329.3-147.2,333.5-152.5,333.5z"/>
	<path class="st0" d="M-152.5,314.5c5.2,0,9.5,4.3,9.5,9.5v-9.5H-152.5z"/>
</g>
<path class="st1" d="M-152.5,314.5c-2.7,0-5.5,1.4-9.3,5.3l-4.2,4.2l4.2,4.2c3.9,3.8,6.7,5.3,9.3,5.3c5.3,0,9.5-4.2,9.5-9.5
	C-143,318.8-147.3,314.5-152.5,314.5z M-146.5,330c-1.6,1.6-3.7,2.5-6,2.5c-2.5,0-5.1-1.6-8.6-5l-3.5-3.5l3.5-3.5
	c3.4-3.4,6.1-5,8.6-5c4.7,0,8.5,3.8,8.5,8.5C-144,326.3-144.9,328.4-146.5,330z"/>
</svg>
